<?xml version="1.0" encoding="UTF-8" standalone="no"?>
<!-- Created with Inkscape (http://www.inkscape.org/) -->

<svg
   xmlns:dc="http://purl.org/dc/elements/1.1/"
   xmlns:cc="http://creativecommons.org/ns#"
   xmlns:rdf="http://www.w3.org/1999/02/22-rdf-syntax-ns#"
   xmlns:svg="http://www.w3.org/2000/svg"
   xmlns="http://www.w3.org/2000/svg"
   xmlns:xlink="http://www.w3.org/1999/xlink"
   xmlns:sodipodi="http://sodipodi.sourceforge.net/DTD/sodipodi-0.dtd"
   xmlns:inkscape="http://www.inkscape.org/namespaces/inkscape"
   width="500"
   height="500"
   id="svg2"
   version="1.1"
   inkscape:version="0.48.0 r9654"
   sodipodi:docname="helpbutton.svg">
  <title
     id="title4051">Help Orb Button</title>
  <defs
     id="defs4">
    <linearGradient
       inkscape:collect="always"
       id="linearGradient3954">
      <stop
         style="stop-color:#ffffff;stop-opacity:1;"
         offset="0"
         id="stop3956" />
      <stop
         style="stop-color:#ffffff;stop-opacity:0;"
         offset="1"
         id="stop3958" />
    </linearGradient>
    <linearGradient
       inkscape:collect="always"
       id="linearGradient3938">
      <stop
         style="stop-color:#ffffff;stop-opacity:1"
         offset="0"
         id="stop3940" />
      <stop
         style="stop-color:#999999;stop-opacity:0"
         offset="1"
         id="stop3942" />
    </linearGradient>
    <linearGradient
       inkscape:collect="always"
       id="linearGradient3877">
      <stop
         style="stop-color:#0066ff;stop-opacity:1"
         offset="0"
         id="stop3879" />
      <stop
         style="stop-color:#214478;stop-opacity:1"
         offset="1"
         id="stop3881" />
    </linearGradient>
    <linearGradient
       inkscape:collect="always"
       id="linearGradient3833">
      <stop
         style="stop-color:#808080;stop-opacity:1"
         offset="0"
         id="stop3835" />
      <stop
         id="stop3853"
         offset="0.31766224"
         style="stop-color:#93a7ac;stop-opacity:1" />
      <stop
         style="stop-color:#ffffff;stop-opacity:1"
         offset="0.50744784"
         id="stop3855" />
      <stop
         id="stop3843"
         offset="0.75959182"
         style="stop-color:#999999;stop-opacity:1" />
      <stop
         style="stop-color:#cccccc;stop-opacity:1"
         offset="1"
         id="stop3837" />
    </linearGradient>
    <linearGradient
       inkscape:collect="always"
       id="linearGradient3823">
      <stop
         style="stop-color:#ffffff;stop-opacity:1"
         offset="0"
         id="stop3825" />
      <stop
         style="stop-color:#87aade;stop-opacity:1"
         offset="1"
         id="stop3827" />
    </linearGradient>
    <radialGradient
       inkscape:collect="always"
       xlink:href="#linearGradient3823"
       id="radialGradient3829"
       cx="749.98822"
       cy="801.96179"
       fx="749.98822"
       fy="801.96179"
       r="131.03564"
       gradientTransform="matrix(1.6835276,0.02218113,-0.02241968,1.7005288,-994.10457,-578.29185)"
       gradientUnits="userSpaceOnUse" />
    <linearGradient
       inkscape:collect="always"
       xlink:href="#linearGradient3833"
       id="linearGradient3839"
       x1="9.1935568"
       y1="290.32257"
       x2="439.19357"
       y2="233.06451"
       gradientUnits="userSpaceOnUse" />
    <radialGradient
       inkscape:collect="always"
       xlink:href="#linearGradient3877"
       id="radialGradient3883"
       cx="750"
       cy="802.36218"
       fx="750"
       fy="802.36218"
       r="240"
       gradientTransform="matrix(0.981971,-5.7401208e-6,5.7080144e-6,0.97647849,-486.48283,18.877038)"
       gradientUnits="userSpaceOnUse" />
    <radialGradient
       inkscape:collect="always"
       xlink:href="#linearGradient3938"
       id="radialGradient3946"
       cx="256.04773"
       cy="75.115677"
       fx="256.04773"
       fy="75.115677"
       r="105.24194"
       gradientTransform="matrix(-2.6062703,-0.040027,0.02742827,-0.85438294,921.3177,196.09319)"
       gradientUnits="userSpaceOnUse" />
    <radialGradient
       inkscape:collect="always"
       xlink:href="#linearGradient3954"
       id="radialGradient3960"
       cx="256.3291"
       cy="61.007351"
       fx="256.3291"
       fy="61.007351"
       r="240"
       gradientUnits="userSpaceOnUse"
       gradientTransform="matrix(-3.1568234,0,0,-1.951177,1065.5148,93.420931)" />
    <radialGradient
       inkscape:collect="always"
       xlink:href="#linearGradient3954"
       id="radialGradient4004"
       gradientUnits="userSpaceOnUse"
       gradientTransform="matrix(-2.1703161,0,0,-0.8792098,810.66642,48.396324)"
       cx="256.3291"
       cy="61.007351"
       fx="256.3291"
       fy="61.007351"
       r="240" />
    <radialGradient
       inkscape:collect="always"
       xlink:href="#linearGradient3954"
       id="radialGradient4006"
       gradientUnits="userSpaceOnUse"
       gradientTransform="matrix(-2.1703161,0,0,-0.8792098,810.66642,48.396324)"
       cx="256.3291"
       cy="61.007351"
       fx="256.3291"
       fy="61.007351"
       r="240" />
    <radialGradient
       inkscape:collect="always"
       xlink:href="#linearGradient3954"
       id="radialGradient4045"
       gradientUnits="userSpaceOnUse"
       gradientTransform="matrix(-2.1703161,0,0,-0.8792098,810.66642,48.396324)"
       cx="256.3291"
       cy="61.007351"
       fx="256.3291"
       fy="61.007351"
       r="240" />
  </defs>
  <sodipodi:namedview
     id="base"
     pagecolor="#ffffff"
     bordercolor="#666666"
     borderopacity="1.0"
     inkscape:pageopacity="0.0"
     inkscape:pageshadow="2"
     inkscape:zoom="1.16"
     inkscape:cx="150.5792"
     inkscape:cy="235.04343"
     inkscape:document-units="px"
     inkscape:current-layer="layer1"
     showgrid="false"
     inkscape:window-width="1440"
     inkscape:window-height="844"
     inkscape:window-x="-4"
     inkscape:window-y="-4"
     inkscape:window-maximized="1">
    <inkscape:grid
       type="xygrid"
       id="grid2985"
       empspacing="5"
       visible="true"
       enabled="true"
       snapvisiblegridlinesonly="true" />
  </sodipodi:namedview>
  <metadata
     id="metadata7">
    <rdf:RDF>
      <cc:Work
         rdf:about="">
        <dc:format>image/svg+xml</dc:format>
        <dc:type
           rdf:resource="http://purl.org/dc/dcmitype/StillImage" />
        <dc:title>Help Orb Button</dc:title>
        <dc:date>2011-01-15</dc:date>
        <dc:creator>
          <cc:Agent>
            <dc:title>John Widmark Catada</dc:title>
          </cc:Agent>
        </dc:creator>
        <dc:rights>
          <cc:Agent>
            <dc:title>John Widmark Catada</dc:title>
          </cc:Agent>
        </dc:rights>
        <dc:publisher>
          <cc:Agent>
            <dc:title>John Widmark Catada</dc:title>
          </cc:Agent>
        </dc:publisher>
        <dc:subject>
          <rdf:Bag>
            <rdf:li>help</rdf:li>
            <rdf:li>help button</rdf:li>
            <rdf:li>help orb</rdf:li>
            <rdf:li>glossy help button</rdf:li>
            <rdf:li>glossy help orb</rdf:li>
          </rdf:Bag>
        </dc:subject>
        <dc:description>A glossy help orb button.</dc:description>
        <cc:license
           rdf:resource="http://artlibre.org/licence/lal" />
      </cc:Work>
      <cc:License
         rdf:about="http://artlibre.org/licence/lal">
        <cc:permits
           rdf:resource="http://creativecommons.org/ns#Reproduction" />
        <cc:permits
           rdf:resource="http://creativecommons.org/ns#Distribution" />
        <cc:permits
           rdf:resource="http://creativecommons.org/ns#DerivativeWorks" />
        <cc:requires
           rdf:resource="http://creativecommons.org/ns#ShareAlike" />
        <cc:requires
           rdf:resource="http://creativecommons.org/ns#Notice" />
        <cc:requires
           rdf:resource="http://creativecommons.org/ns#Attribution" />
      </cc:License>
    </rdf:RDF>
  </metadata>
  <g
     inkscape:label="Layer 1"
     inkscape:groupmode="layer"
     id="layer1"
     transform="translate(0,-552.36218)">
    <path
       sodipodi:open="true"
       sodipodi:end="6.2784273"
       sodipodi:start="0"
       transform="translate(0,552.36218)"
       d="m 490,250 a 240,240 0 1 1 -0.003,-1.14192"
       sodipodi:ry="240"
       sodipodi:rx="240"
       sodipodi:cy="250"
       sodipodi:cx="250"
       id="path3831"
       style="fill:url(#linearGradient3839);fill-opacity:1;stroke:none"
       sodipodi:type="arc" />
    <path
       inkscape:connector-curvature="0"
       d="m 290.2629,941.9432 c 0,18.39232 -17.54899,33.3023 -39.19674,33.3023 -21.64776,0 -39.19672,-14.90998 -39.19672,-33.3023 0,-18.39235 17.54896,-33.30228 39.19672,-33.30228 21.57498,0 39.09364,14.81355 39.19629,33.14382 M 239.86018,629.00633 c -58.85891,0.60515 -113.13697,42.0493 -117.89639,92.13875 -1.30843,6.18381 -1.97644,12.38721 -2.71228,18.65819 33.85966,21.35618 33.85966,21.35618 73.10014,7.3592 0.767,-23.53751 11.59008,-50.57068 38.84676,-60.58336 31.91412,-11.68831 75.87069,8.70822 76.86235,39.50928 -0.30522,21.27223 -22.35139,35.04798 -39.73841,47.45294 -29.33098,20.98726 -54.321,50.48834 -53.60647,84.49058 -0.61197,10.36753 0.0172,20.74606 0.38387,31.11123 36.00326,14.74031 36.00326,14.74031 70.0379,0 -6.03698,-32.83435 -0.42028,-50.79333 22.96684,-66.27004 29.02937,-22.27299 62.35,-45.50651 71.30655,-79.50174 13.75998,-50.66425 -32.99521,-105.08181 -93.17971,-111.54028 -15.21324,-2.71049 -30.83372,-3.01625 -46.37115,-2.82475 z"
       style="fill:url(#radialGradient3829);fill-opacity:1;stroke:#435f9f;stroke-width:0.2;stroke-miterlimit:4;stroke-opacity:1;stroke-dasharray:none"
       id="path3045" />
    <path
       style="fill:url(#radialGradient3883);fill-opacity:1;stroke:none"
       d="m 250,562.36218 c -132.54834,0 -240,107.45166 -240,240 0,132.54834 107.45166,240.00002 240,240.00002 132.54834,0 240,-107.45168 240,-240.00002 l 0,-1.15625 C 489.3715,669.10481 382.10261,562.36218 250,562.36218 z m -5,62.34375 c 14.0223,-0.0336 28.06309,0.50386 41.78125,2.9375 62.02272,6.62718 110.21149,62.44967 96.03125,114.4375 -9.23011,34.88333 -43.58398,58.73888 -73.5,81.59375 -24.10143,15.88103 -29.87762,34.30788 -23.65625,68 -35.07416,15.12541 -35.08459,15.12541 -72.1875,0 -0.3779,-10.63594 -1.00566,-21.29912 -0.375,-31.9375 -0.73634,-34.89053 24.99191,-65.15195 55.21875,-86.6875 17.91807,-12.72903 40.65421,-26.85954 40.96875,-48.6875 -1.02194,-31.60573 -46.32988,-52.52491 -79.21875,-40.53125 -28.08918,10.27425 -39.24082,38.00383 -40.03125,62.15625 -40.439,14.36264 -40.44991,14.35159 -75.34375,-7.5625 0.75831,-6.43482 1.4641,-12.77965 2.8125,-19.125 4.90478,-51.39802 60.84336,-93.94155 121.5,-94.5625 2.0015,-0.0246 3.99681,-0.0264 6,-0.0312 z m 5.53125,286.96875 c 22.23394,0 40.30046,15.2221 40.40625,34.03125 l 0,0.15625 c 0,18.87282 -18.0973,34.15625 -40.40625,34.15625 -22.30894,0 -40.375,-15.28343 -40.375,-34.15625 0,-18.87282 18.06606,-34.1875 40.375,-34.1875 z"
       id="path2987"
       inkscape:connector-curvature="0" />
    <g
       style="font-size:360.04290771000001000px;font-style:normal;font-weight:normal;line-height:125%;letter-spacing:0px;word-spacing:0px;fill:#e6e6e6;fill-opacity:1;stroke:none;font-family:Sans"
       id="text2989" />
    <path
       sodipodi:open="true"
       sodipodi:end="6.2784273"
       sodipodi:start="0"
       transform="matrix(1.1090695,0,0,1.6034859,-30.811523,444.92652)"
       d="m 361.29034,164.91936 a 105.24194,47.177418 0 1 1 -0.001,-0.22447"
       sodipodi:ry="47.177418"
       sodipodi:rx="105.24194"
       sodipodi:cy="164.91936"
       sodipodi:cx="256.0484"
       id="path3903"
       style="fill:#ffffff;fill-opacity:0.60355031000000003;stroke:none;stroke-width:0.20000000000000001;stroke-miterlimit:4;stroke-opacity:1;stroke-dasharray:none;opacity:0"
       sodipodi:type="arc" />
    <path
       style="fill:url(#radialGradient4045);fill-opacity:1;stroke:none"
       d="M 241.53125 80.0625 C 197.02069 80.200818 151.23529 103.48744 131.78125 144.5625 C 126.92228 156.1898 123.9593 169.18178 123.8125 181.5625 C 123.80886 181.59332 123.81611 181.62542 123.8125 181.65625 C 123.55878 183.82556 123.3847 186.01225 123.3125 188.21875 C 129.91748 193.40117 137.22859 198.17377 145.1875 202.46875 C 156.37885 205.56095 166.15334 202.10567 190.03125 193.625 C 190.82168 169.47258 201.97332 141.743 230.0625 131.46875 C 262.95137 119.47509 308.25931 140.39427 309.28125 172 C 308.96671 193.82796 286.23057 207.95847 268.3125 220.6875 C 265.5091 222.68482 262.73974 224.76208 260.03125 226.90625 C 305.68018 225.11199 346.30109 211.12125 374.5 189.875 C 383.54829 158.86282 367.85169 124.846 342.625 106.21875 C 315.55847 84.82955 279.55333 79.86887 245.84375 80.09375 C 244.41153 80.049797 242.96707 80.058038 241.53125 80.0625 z "
       transform="translate(0,552.36218)"
       id="path3952" />
    <path
       style="fill:url(#radialGradient4004);fill-opacity:1;stroke:none"
       d="M 250 10.8125 C 158.87302 10.8125 85 59.210576 85 118.9375 C 85 142.18894 96.199332 163.74065 115.25 181.375 C 115.83544 176.53676 116.48006 171.73716 117.5 166.9375 C 122.40478 115.53948 178.34336 72.99595 239 72.375 C 241.0015 72.3508 242.99681 72.34875 245 72.34375 C 259.0223 72.31015 273.06309 72.84761 286.78125 75.28125 C 345.58695 81.564688 391.93415 132.0606 384.5 181.59375 C 403.69951 163.91756 415 142.28835 415 118.9375 L 415 118.4375 C 414.56788 58.912098 340.82055 10.8125 250 10.8125 z M 249.5 128.0625 C 242.83391 128.14364 236.22916 129.21994 230.0625 131.46875 C 201.97332 141.743 190.82168 169.47258 190.03125 193.625 C 166.15334 202.10567 156.37885 205.56095 145.1875 202.46875 C 173.6879 217.84885 210.20015 227.09375 250 227.09375 C 253.36829 227.09375 256.71296 227.03668 260.03125 226.90625 C 262.73974 224.76208 265.5091 222.68482 268.3125 220.6875 C 286.23057 207.95847 308.96671 193.82796 309.28125 172 C 308.45092 146.32034 278.38639 127.7109 249.5 128.0625 z "
       transform="translate(0,552.36218)"
       id="path4002" />
  </g>
</svg>
